<svg width="220" height="220" viewBox="0 0 220 220" fill="none" xmlns="http://www.w3.org/2000/svg">
  <defs>
    <linearGradient id="grad" x1="40" y1="40" x2="180" y2="180" gradientUnits="userSpaceOnUse">
      <stop offset="0" stop-color="#6D28D9"></stop>
      <stop offset="1" stop-color="#22C55E"></stop>
    </linearGradient>

    <filter id="softShadow" x="-20%" y="-20%" width="140%" height="140%">
      <feDropShadow dx="0" dy="10" stdDeviation="10" flood-opacity="0.18"></feDropShadow>
    </filter>
  </defs>

  <!-- Background -->
  <rect x="18" y="18" width="184" height="184" rx="44" fill="#0B1220" filter="url(#softShadow)"></rect>

  <!-- Steam lines -->
  <path d="M90 70C84 80 84 88 90 98" stroke="#EDE9FE" stroke-width="8" stroke-linecap="round" opacity="0.9"></path>
  <path d="M110 64C104 76 104 86 110 98" stroke="#EDE9FE" stroke-width="8" stroke-linecap="round" opacity="0.9"></path>
  <path d="M130 70C124 80 124 88 130 98" stroke="#EDE9FE" stroke-width="8" stroke-linecap="round" opacity="0.9"></path>

  <!-- Bowl -->
  <path d="M60 120C60 150 82 172 110 172C138 172 160 150 160 120" stroke="url(#grad)" stroke-width="12" stroke-linecap="round"></path>
  <path d="M70 120H150" stroke="url(#grad)" stroke-width="12" stroke-linecap="round" opacity="0.9"></path>

  <!-- Leaf -->
  <path d="M146 86C156 86 164 94 164 104C152 104 144 96 146 86Z" fill="#22C55E" opacity="0.95"></path>
  <path d="M148 88C152 94 156 98 162 102" stroke="#0B1220" stroke-width="3" stroke-linecap="round" opacity="0.7"></path>
</svg>
